<?xml version="1.0" encoding="UTF-8" standalone="no"?>
<svg
   width="302.4pt"
   height="302.4pt"
   viewBox="0 0 302.4 302.4"
   version="1.1"
   id="svg30747"
   sodipodi:docname="Irish_Catholics_1017606.svg"
   inkscape:version="1.2.2 (b0a8486541, 2022-12-01)"
   xmlns:inkscape="http://www.inkscape.org/namespaces/inkscape"
   xmlns:sodipodi="http://sodipodi.sourceforge.net/DTD/sodipodi-0.dtd"
   xmlns:xlink="http://www.w3.org/1999/xlink"
   xmlns="http://www.w3.org/2000/svg"
   xmlns:svg="http://www.w3.org/2000/svg"
   xmlns:rdf="http://www.w3.org/1999/02/22-rdf-syntax-ns#"
   xmlns:cc="http://creativecommons.org/ns#"
   xmlns:dc="http://purl.org/dc/elements/1.1/">
  <sodipodi:namedview
     id="namedview30749"
     pagecolor="#ffffff"
     bordercolor="#000000"
     borderopacity="0.25"
     inkscape:showpageshadow="2"
     inkscape:pageopacity="0.0"
     inkscape:pagecheckerboard="0"
     inkscape:deskcolor="#d1d1d1"
     inkscape:document-units="pt"
     showgrid="false"
     inkscape:zoom="1.3486238"
     inkscape:cx="201.68708"
     inkscape:cy="215.77551"
     inkscape:window-width="1920"
     inkscape:window-height="935"
     inkscape:window-x="0"
     inkscape:window-y="32"
     inkscape:window-maximized="1"
     inkscape:current-layer="svg30747" />
  <metadata
     id="metadata30338">
    <rdf:RDF>
      <cc:Work>
        <dc:type
           rdf:resource="http://purl.org/dc/dcmitype/StillImage" />
        <dc:date>2023-02-05T18:02:32.362200</dc:date>
        <dc:format>image/svg+xml</dc:format>
        <dc:creator>
          <cc:Agent>
            <dc:title>Matplotlib v3.6.3, https://matplotlib.org/</dc:title>
          </cc:Agent>
        </dc:creator>
      </cc:Work>
    </rdf:RDF>
  </metadata>
  <defs
     id="defs30342">
    <style
       type="text/css"
       id="style30340">*{stroke-linejoin: round; stroke-linecap: butt}</style>
  </defs>
  <g
     id="figure_1"
     transform="translate(-14.932002,2.0475064)">
    <g
       id="patch_1">
      <path
         d="M 0,302.4 H 302.4 V 0 H 0 Z"
         style="fill:#ffffff"
         id="path30344" />
    </g>
    <g
       id="axes_1">
      <g
         id="patch_2">
        <path
           d="m 234.69241,270.03776 q -39.71689,-0.87069 -76.03416,-1.66685"
           clip-path="url(#p02ba4c0c7f)"
           style="fill:none;stroke:#7f7f7f;stroke-width:3.04144;stroke-linejoin:miter"
           id="path30347" />
        <path
           d="m 162.61345,270.4581 -3.9552,-2.08719 4.04287,-1.91185 z"
           clip-path="url(#p02ba4c0c7f)"
           style="fill:#7f7f7f;stroke:#7f7f7f;stroke-width:3.04144;stroke-linejoin:miter"
           id="path30349" />
      </g>
      <g
         id="patch_3">
        <path
           d="m 139.85667,128.32942 q 29.92736,-1.4 56.41495,-2.63909"
           clip-path="url(#p02ba4c0c7f)"
           style="fill:none;stroke:#7f7f7f;stroke-width:3.07998;stroke-linejoin:miter"
           id="path30352" />
        <path
           d="m 192.18254,123.87943 4.08908,1.8109 -3.90217,2.18473 z"
           clip-path="url(#p02ba4c0c7f)"
           style="fill:#7f7f7f;stroke:#7f7f7f;stroke-width:3.07998;stroke-linejoin:miter"
           id="path30354" />
      </g>
      <g
         id="patch_4">
        <path
           d="m 92.860908,224.57421 q -13.572383,-2.88049 -23.61611,-5.01209"
           clip-path="url(#p02ba4c0c7f)"
           style="fill:none;stroke:#7f7f7f;stroke-width:3.22642;stroke-linejoin:miter"
           id="path30357" />
        <path
           d="m 72.742431,222.34897 -3.497633,-2.78685 4.328064,-1.126 z"
           clip-path="url(#p02ba4c0c7f)"
           style="fill:#7f7f7f;stroke:#7f7f7f;stroke-width:3.22642;stroke-linejoin:miter"
           id="path30359" />
      </g>
      <g
         id="patch_5">
        <path
           d="m 235.54103,266.6756 q -18.67755,-9.52274 -33.84378,-17.25523"
           clip-path="url(#p02ba4c0c7f)"
           style="fill:none;stroke:#7f7f7f;stroke-width:3.52526;stroke-linejoin:miter"
           id="path30362" />
        <path
           d="m 204.35237,253.01902 -2.65512,-3.59865 4.472,0.0351 z"
           clip-path="url(#p02ba4c0c7f)"
           style="fill:#7f7f7f;stroke:#7f7f7f;stroke-width:3.52526;stroke-linejoin:miter"
           id="path30364" />
      </g>
      <g
         id="patch_6">
        <path
           d="m 139.40193,125.44766 q 50.93932,-13.75585 97.94736,-26.450077"
           clip-path="url(#p02ba4c0c7f)"
           style="fill:none;stroke:#7f7f7f;stroke-width:3.6422;stroke-linejoin:miter"
           id="path30367" />
        <path
           d="m 232.96621,98.109567 4.38308,0.888016 -3.34026,2.973657 z"
           clip-path="url(#p02ba4c0c7f)"
           style="fill:#7f7f7f;stroke:#7f7f7f;stroke-width:3.6422;stroke-linejoin:miter"
           id="path30369" />
      </g>
      <g
         id="patch_7">
        <path
           d="M 136.72764,260.03702 Q 125.99488,248.61349 118.14499,240.25838"
           clip-path="url(#p02ba4c0c7f)"
           style="fill:none;stroke:#7f7f7f;stroke-width:3.76575;stroke-linejoin:miter"
           id="path30372" />
        <path
           d="m 119.42631,244.54303 -1.28132,-4.28465 4.19651,1.54574 z"
           clip-path="url(#p02ba4c0c7f)"
           style="fill:#7f7f7f;stroke:#7f7f7f;stroke-width:3.76575;stroke-linejoin:miter"
           id="path30374" />
      </g>
      <g
         id="patch_8">
        <path
           d="M 178.63654,237.53608 Q 134.60916,214.51616 94.601443,193.59793"
           clip-path="url(#p02ba4c0c7f)"
           style="fill:none;stroke:#7f7f7f;stroke-width:4.05708;stroke-linejoin:miter"
           id="path30377" />
        <path
           d="m 97.219473,197.22366 -2.61803,-3.62573 4.471402,0.081 z"
           clip-path="url(#p02ba4c0c7f)"
           style="fill:#7f7f7f;stroke:#7f7f7f;stroke-width:4.05708;stroke-linejoin:miter"
           id="path30379" />
      </g>
      <g
         id="patch_9">
        <path
           d="M 118.02956,118.40283 Q 102.44416,98.745972 89.731049,82.71173"
           clip-path="url(#p02ba4c0c7f)"
           style="fill:none;stroke:#7f7f7f;stroke-width:4.13505;stroke-linejoin:miter"
           id="path30382" />
        <path
           d="m 90.649013,87.08864 -0.917964,-4.37691 4.052306,1.891775 z"
           clip-path="url(#p02ba4c0c7f)"
           style="fill:#7f7f7f;stroke:#7f7f7f;stroke-width:4.13505;stroke-linejoin:miter"
           id="path30384" />
      </g>
      <g
         id="patch_10">
        <path
           d="M 246.31653,85.585513 Q 234.01755,64.69435 224.07166,47.800184"
           clip-path="url(#p02ba4c0c7f)"
           style="fill:none;stroke:#000000;stroke-width:4.14855;stroke-linejoin:miter"
           id="path30387" />
        <path
           d="m 224.37747,52.261852 -0.30581,-4.461668 3.75282,2.432354 z"
           clip-path="url(#p02ba4c0c7f)"
           style="stroke:#000000;stroke-width:4.14855;stroke-linejoin:miter"
           id="path30389" />
      </g>
      <g
         id="patch_11">
        <path
           d="M 215.18948,109.24392 Q 215.06291,77.454723 214.95681,50.806914"
           clip-path="url(#p02ba4c0c7f)"
           style="fill:none;stroke:#7f7f7f;stroke-width:4.59864;stroke-linejoin:miter"
           id="path30392" />
        <path
           d="m 212.97275,54.814845 1.98406,-4.007931 2.01591,3.992005 z"
           clip-path="url(#p02ba4c0c7f)"
           style="fill:#7f7f7f;stroke:#7f7f7f;stroke-width:4.59864;stroke-linejoin:miter"
           id="path30394" />
      </g>
      <g
         id="patch_12">
        <path
           d="m 183.12138,232.97917 q -25.13705,-46.0977 -47.66852,-87.41716"
           clip-path="url(#p02ba4c0c7f)"
           style="fill:none;stroke:#7f7f7f;stroke-width:4.8679;stroke-linejoin:miter"
           id="path30397" />
        <path
           d="m 135.61194,150.03131 -0.15908,-4.4693 3.67089,2.55431 z"
           clip-path="url(#p02ba4c0c7f)"
           style="fill:#7f7f7f;stroke:#7f7f7f;stroke-width:4.8679;stroke-linejoin:miter"
           id="path30399" />
      </g>
      <g
         id="patch_13">
        <path
           d="M 78.47637,171.78453 Q 77.931224,127.11968 77.453238,87.957369"
           clip-path="url(#p02ba4c0c7f)"
           style="fill:none;stroke:#7f7f7f;stroke-width:4.92198;stroke-linejoin:miter"
           id="path30402" />
        <path
           d="m 75.502205,91.981479 1.951033,-4.02411 2.048669,3.975293 z"
           clip-path="url(#p02ba4c0c7f)"
           style="fill:#7f7f7f;stroke:#7f7f7f;stroke-width:4.92198;stroke-linejoin:miter"
           id="path30404" />
      </g>
      <g
         id="patch_14">
        <path
           d="m 242.88813,262.43953 q 4.20989,-78.19342 8.09361,-150.32862"
           clip-path="url(#p02ba4c0c7f)"
           style="fill:none;stroke:#000000;stroke-width:5.42649;stroke-linejoin:miter"
           id="path30407" />
        <path
           d="m 248.76959,115.9976 2.21215,-3.88669 1.78206,4.10173 z"
           clip-path="url(#p02ba4c0c7f)"
           style="stroke:#000000;stroke-width:5.42649;stroke-linejoin:miter"
           id="path30409" />
      </g>
      <g
         id="patch_15">
        <path
           d="M 147.41518,257.52104 Q 179.21713,151.30827 209.18392,51.224628"
           clip-path="url(#p02ba4c0c7f)"
           style="fill:none;stroke:#7f7f7f;stroke-width:5.72252;stroke-linejoin:miter"
           id="path30412" />
        <path
           d="m 206.12061,54.482876 3.06331,-3.258248 0.76861,4.405591 z"
           clip-path="url(#p02ba4c0c7f)"
           style="fill:#7f7f7f;stroke:#7f7f7f;stroke-width:5.72252;stroke-linejoin:miter"
           id="path30414" />
      </g>
      <g
         id="PathCollection_1">
        <path
           d="m 242.46987,277.62446 c 1.9668,0 3.85331,-0.78141 5.24404,-2.17215 1.39074,-1.39074 2.17216,-3.27725 2.17216,-5.24405 0,-1.96679 -0.78142,-3.8533 -2.17216,-5.24404 -1.39073,-1.39074 -3.27724,-2.17215 -5.24404,-2.17215 -1.9668,0 -3.85331,0.78141 -5.24404,2.17215 -1.39074,1.39074 -2.17216,3.27725 -2.17216,5.24404 0,1.9668 0.78142,3.85331 2.17216,5.24405 1.39073,1.39074 3.27724,2.17215 5.24404,2.17215 z"
           clip-path="url(#p02ba4c0c7f)"
           style="fill:#ffef55;stroke:#b5a93a"
           id="path30417" />
        <path
           d="m 188.38594,253.12169 c 2.78147,0 5.4494,-1.10509 7.4162,-3.07189 1.9668,-1.9668 3.07189,-4.63472 3.07189,-7.4162 0,-2.78147 -1.10509,-5.4494 -3.07189,-7.4162 -1.9668,-1.9668 -4.63473,-3.07189 -7.4162,-3.07189 -2.78147,0 -5.4494,1.10509 -7.4162,3.07189 -1.9668,1.9668 -3.07189,4.63473 -3.07189,7.4162 0,2.78148 1.10509,5.4494 3.07189,7.4162 1.9668,1.9668 4.63473,3.07189 7.4162,3.07189 z"
           clip-path="url(#p02ba4c0c7f)"
           style="fill:#9be3f9;stroke:#6da4b5;stroke-width:2"
           id="path30419" />
        <path
           d="m 144.26105,278.54338 c 2.78147,0 5.44939,-1.1051 7.41619,-3.0719 1.9668,-1.96679 3.07189,-4.63472 3.07189,-7.41619 0,-2.78148 -1.10509,-5.4494 -3.07189,-7.4162 -1.9668,-1.9668 -4.63472,-3.07189 -7.41619,-3.07189 -2.78148,0 -5.4494,1.10509 -7.4162,3.07189 -1.9668,1.9668 -3.07189,4.63472 -3.07189,7.4162 0,2.78147 1.10509,5.4494 3.07189,7.41619 1.9668,1.9668 4.63472,3.0719 7.4162,3.0719 z"
           clip-path="url(#p02ba4c0c7f)"
           style="fill:#9be3f9;stroke:#6da4b5;stroke-width:2"
           id="path30421" />
        <path
           d="m 251.8993,105.55653 c 2.78147,0 5.4494,-1.10509 7.4162,-3.07189 1.9668,-1.9668 3.07189,-4.634723 3.07189,-7.416196 0,-2.781474 -1.10509,-5.4494 -3.07189,-7.416199 -1.9668,-1.966799 -4.63473,-3.07189 -7.4162,-3.07189 -2.78147,0 -5.4494,1.105091 -7.4162,3.07189 -1.9668,1.966799 -3.07189,4.634725 -3.07189,7.416199 0,2.781473 1.10509,5.449396 3.07189,7.416196 1.9668,1.9668 4.63473,3.07189 7.4162,3.07189 z"
           clip-path="url(#p02ba4c0c7f)"
           style="fill:#0097c3;stroke:#006b8a;stroke-width:2"
           id="path30423" />
        <path
           d="m 78.640753,198.09805 c 3.406596,0 6.674125,-1.35346 9.082951,-3.76229 2.408827,-2.40882 3.762282,-5.67635 3.762282,-9.08295 0,-3.40659 -1.353455,-6.67412 -3.762282,-9.08295 -2.408826,-2.40883 -5.676355,-3.76228 -9.082951,-3.76228 -3.406595,0 -6.674124,1.35345 -9.082951,3.76228 -2.408827,2.40883 -3.762281,5.67636 -3.762281,9.08295 0,3.4066 1.353454,6.67413 3.762281,9.08295 2.408827,2.40883 5.676356,3.76229 9.082951,3.76229 z"
           clip-path="url(#p02ba4c0c7f)"
           style="fill:#0097c3;stroke:#006b8a;stroke-width:3"
           id="path30425" />
        <path
           d="m 126.39923,141.80419 c 3.40659,0 6.67412,-1.35345 9.08295,-3.76228 2.40882,-2.40883 3.76228,-5.67636 3.76228,-9.08295 0,-3.4066 -1.35346,-6.67412 -3.76228,-9.08295 -2.40883,-2.40883 -5.67636,-3.76228 -9.08295,-3.76228 -3.4066,0 -6.67413,1.35345 -9.08296,3.76228 -2.40882,2.40883 -3.76228,5.67635 -3.76228,9.08295 0,3.40659 1.35346,6.67412 3.76228,9.08295 2.40883,2.40883 5.67636,3.76228 9.08296,3.76228 z"
           clip-path="url(#p02ba4c0c7f)"
           style="fill:#0097c3;stroke:#006b8a;stroke-width:3"
           id="path30427" />
        <path
           d="m 106.0364,240.2157 c 3.4066,0 6.67413,-1.35346 9.08295,-3.76228 2.40883,-2.40883 3.76228,-5.67636 3.76228,-9.08295 0,-3.4066 -1.35345,-6.67413 -3.76228,-9.08295 -2.40882,-2.40883 -5.67635,-3.76229 -9.08295,-3.76229 -3.40659,0 -6.674124,1.35346 -9.08295,3.76229 -2.408827,2.40882 -3.762282,5.67635 -3.762282,9.08295 0,3.40659 1.353455,6.67412 3.762282,9.08295 2.408826,2.40882 5.67636,3.76228 9.08295,3.76228 z"
           clip-path="url(#p02ba4c0c7f)"
           style="fill:#9be3f9;stroke:#6da4b5;stroke-width:3"
           id="path30429" />
        <path
           d="m 214.88269,45.036968 c 3.4066,0 6.67413,-1.353455 9.08295,-3.762281 2.40883,-2.408827 3.76229,-5.676356 3.76229,-9.082951 0,-3.406596 -1.35346,-6.674125 -3.76229,-9.082952 -2.40882,-2.408826 -5.67635,-3.762281 -9.08295,-3.762281 -3.40659,0 -6.67412,1.353455 -9.08295,3.762281 -2.40882,2.408827 -3.76228,5.676356 -3.76228,9.082952 0,3.406595 1.35346,6.674124 3.76228,9.082951 2.40883,2.408826 5.67636,3.762281 9.08295,3.762281 z"
           clip-path="url(#p02ba4c0c7f)"
           style="fill:#f24f26;stroke:#a83619;stroke-width:3"
           id="path30431" />
        <path
           d="m 77.196257,81.734794 c 3.933598,0 7.706615,-1.562835 10.488089,-4.344308 2.781473,-2.781474 4.344308,-6.554491 4.344308,-10.488089 0,-3.933598 -1.562835,-7.706615 -4.344308,-10.488088 C 84.902872,53.632835 81.129855,52.07 77.196257,52.07 c -3.933598,0 -7.706615,1.562835 -10.488088,4.344309 -2.781474,2.781473 -4.344309,6.55449 -4.344309,10.488088 0,3.933598 1.562835,7.706615 4.344309,10.488089 2.781473,2.781473 6.55449,4.344308 10.488088,4.344308 z"
           clip-path="url(#p02ba4c0c7f)"
           style="fill:#f24f26;stroke:#a83619;stroke-width:4"
           id="path30433" />
        <path
           d="m 215.25143,139.63485 c 3.9336,0 7.70662,-1.56283 10.48809,-4.3443 2.78147,-2.78148 4.34431,-6.5545 4.34431,-10.48809 0,-3.9336 -1.56284,-7.70662 -4.34431,-10.48809 -2.78147,-2.78148 -6.55449,-4.34431 -10.48809,-4.34431 -3.9336,0 -7.70661,1.56283 -10.48809,4.34431 -2.78147,2.78147 -4.34431,6.55449 -4.34431,10.48809 0,3.93359 1.56284,7.70661 4.34431,10.48809 2.78148,2.78147 6.55449,4.3443 10.48809,4.3443 z"
           clip-path="url(#p02ba4c0c7f)"
           style="fill:#0097c3;stroke:#006b8a;stroke-width:4"
           id="path30435" />
        <path
           d="m 50.500699,230.41642 c 3.933598,0 7.706615,-1.56284 10.488089,-4.34431 2.781473,-2.78147 4.344308,-6.55449 4.344308,-10.48809 0,-3.93359 -1.562835,-7.70661 -4.344308,-10.48809 -2.781474,-2.78147 -6.554491,-4.3443 -10.488089,-4.3443 -3.933597,0 -7.706615,1.56283 -10.488088,4.3443 -2.781474,2.78148 -4.344309,6.5545 -4.344309,10.48809 0,3.9336 1.562835,7.70662 4.344309,10.48809 2.781473,2.78147 6.554491,4.34431 10.488088,4.34431 z"
           clip-path="url(#p02ba4c0c7f)"
           style="fill:#f24f26;stroke:#a83619;stroke-width:4"
           id="path30437" />
      </g>
      <g
         id="text_1">
        <g
           id="patch_16">
          <path
             d="m 203.31206,279.04733 h 78.31562 V 261.3692 h -78.31562 z"
             clip-path="url(#p02ba4c0c7f)"
             style="opacity:0.7;fill:#ffffff;stroke:#000000;stroke-linejoin:miter"
             id="path30440" />
        </g>
        <g
           clip-path="url(#p02ba4c0c7f)"
           id="g30489">
          <!-- Irish Catholics -->
          <g
             transform="matrix(0.1,0,0,-0.1,207.31206,272.96764)"
             id="g30487">
            <defs
               id="defs30455">
              <path
                 id="DejaVuSans-49"
                 d="m 628,4666 h 631 V 0 H 628 Z"
                 transform="scale(0.015625)" />
              <path
                 id="DejaVuSans-72"
                 d="m 2631,2963 q -97,56 -211,82 -114,27 -251,27 -488,0 -749,-317 -261,-317 -261,-911 V 0 H 581 v 3500 h 578 v -544 q 182,319 472,473 291,155 707,155 59,0 131,-8 72,-7 159,-23 z"
                 transform="scale(0.015625)" />
              <path
                 id="DejaVuSans-69"
                 d="m 603,3500 h 575 V 0 H 603 Z m 0,1363 h 575 V 4134 H 603 Z"
                 transform="scale(0.015625)" />
              <path
                 id="DejaVuSans-73"
                 d="m 2834,3397 v -544 q -243,125 -506,187 -262,63 -544,63 -428,0 -642,-131 -214,-131 -214,-394 0,-200 153,-314 153,-114 616,-217 l 197,-44 q 612,-131 870,-370 258,-239 258,-667 0,-488 -386,-773 Q 2250,-91 1575,-91 1294,-91 989,-36 684,19 347,128 v 594 q 319,-166 628,-249 309,-82 613,-82 406,0 624,139 219,139 219,392 0,234 -158,359 -157,125 -692,241 l -200,47 q -534,112 -772,345 -237,233 -237,639 0,494 350,762 350,269 994,269 318,0 599,-47 282,-46 519,-140 z"
                 transform="scale(0.015625)" />
              <path
                 id="DejaVuSans-68"
                 d="M 3513,2113 V 0 h -575 v 2094 q 0,497 -194,743 -194,247 -581,247 -466,0 -735,-297 -269,-296 -269,-809 V 0 H 581 v 4863 h 578 V 2956 q 207,316 486,472 280,156 646,156 603,0 912,-373 310,-373 310,-1098 z"
                 transform="scale(0.015625)" />
              <path
                 id="DejaVuSans-20"
                 transform="scale(0.015625)"
                 d="" />
              <path
                 id="DejaVuSans-43"
                 d="m 4122,4306 v -665 q -319,297 -680,443 -361,147 -767,147 -800,0 -1225,-489 -425,-489 -425,-1414 0,-922 425,-1411 425,-489 1225,-489 406,0 767,147 361,147 680,444 V 359 Q 3791,134 3420,21 3050,-91 2638,-91 1578,-91 968,557 359,1206 359,2328 q 0,1125 609,1773 610,649 1670,649 418,0 788,-111 371,-111 696,-333 z"
                 transform="scale(0.015625)" />
              <path
                 id="DejaVuSans-61"
                 d="m 2194,1759 q -697,0 -966,-159 -269,-159 -269,-544 0,-306 202,-486 202,-179 548,-179 479,0 768,339 289,339 289,901 v 128 z m 1147,238 V 0 H 2766 V 531 Q 2569,213 2275,61 1981,-91 1556,-91 q -537,0 -855,302 -317,302 -317,808 0,590 395,890 396,300 1180,300 h 807 v 57 q 0,397 -261,614 -261,217 -733,217 -300,0 -585,-72 -284,-72 -546,-216 v 532 q 315,122 612,182 297,61 578,61 760,0 1135,-394 375,-393 375,-1193 z"
                 transform="scale(0.015625)" />
              <path
                 id="DejaVuSans-74"
                 d="M 1172,4494 V 3500 H 2356 V 3053 H 1172 V 1153 q 0,-428 117,-550 117,-122 477,-122 h 590 V 0 H 1766 Q 1100,0 847,248 594,497 594,1153 V 3053 H 172 v 447 h 422 v 994 z"
                 transform="scale(0.015625)" />
              <path
                 id="DejaVuSans-6f"
                 d="m 1959,3097 q -462,0 -731,-361 -269,-361 -269,-989 0,-628 267,-989 268,-361 733,-361 460,0 728,362 269,363 269,988 0,622 -269,986 -268,364 -728,364 z m 0,487 q 750,0 1178,-488 429,-487 429,-1349 Q 3566,888 3137,398 2709,-91 1959,-91 1206,-91 779,398 353,888 353,1747 q 0,862 426,1349 427,488 1180,488 z"
                 transform="scale(0.015625)" />
              <path
                 id="DejaVuSans-6c"
                 d="m 603,4863 h 575 V 0 H 603 Z"
                 transform="scale(0.015625)" />
              <path
                 id="DejaVuSans-63"
                 d="m 3122,3366 v -538 q -244,135 -489,202 -245,67 -495,67 -560,0 -870,-355 -309,-354 -309,-995 0,-641 309,-996 310,-354 870,-354 250,0 495,67 245,67 489,202 V 134 Q 2881,22 2623,-34 2366,-91 2075,-91 1284,-91 818,406 353,903 353,1747 q 0,856 470,1346 471,491 1290,491 265,0 518,-55 253,-54 491,-163 z"
                 transform="scale(0.015625)" />
            </defs>
            <use
               xlink:href="#DejaVuSans-49"
               id="use30457" />
            <use
               xlink:href="#DejaVuSans-72"
               x="29.492188"
               id="use30459" />
            <use
               xlink:href="#DejaVuSans-69"
               x="70.605469"
               id="use30461" />
            <use
               xlink:href="#DejaVuSans-73"
               x="98.388672"
               id="use30463" />
            <use
               xlink:href="#DejaVuSans-68"
               x="150.48828"
               id="use30465" />
            <use
               xlink:href="#DejaVuSans-20"
               x="213.86719"
               id="use30467" />
            <use
               xlink:href="#DejaVuSans-43"
               x="245.6543"
               id="use30469" />
            <use
               xlink:href="#DejaVuSans-61"
               x="315.47852"
               id="use30471" />
            <use
               xlink:href="#DejaVuSans-74"
               x="376.75781"
               id="use30473" />
            <use
               xlink:href="#DejaVuSans-68"
               x="415.9668"
               id="use30475" />
            <use
               xlink:href="#DejaVuSans-6f"
               x="479.3457"
               id="use30477" />
            <use
               xlink:href="#DejaVuSans-6c"
               x="540.52734"
               id="use30479" />
            <use
               xlink:href="#DejaVuSans-69"
               x="568.31055"
               id="use30481" />
            <use
               xlink:href="#DejaVuSans-63"
               x="596.09375"
               id="use30483" />
            <use
               xlink:href="#DejaVuSans-73"
               x="651.07422"
               id="use30485" />
          </g>
        </g>
      </g>
      <g
         id="text_2">
        <g
           id="patch_17">
          <path
             d="m 219.4993,103.90751 h 64.8 V 86.229381 h -64.8 z"
             clip-path="url(#p02ba4c0c7f)"
             style="opacity:0.7;fill:#ffffff;stroke:#000000;stroke-linejoin:miter"
             id="path30492" />
        </g>
        <g
           clip-path="url(#p02ba4c0c7f)"
           id="g30524">
          <!-- Yiguan Dao -->
          <g
             transform="matrix(0.1,0,0,-0.1,223.4993,97.827819)"
             id="g30522">
            <defs
               id="defs30500">
              <path
                 id="DejaVuSans-59"
                 d="M -13,4666 H 666 L 1959,2747 3244,4666 h 678 L 2272,2222 V 0 h -634 v 2222 z"
                 transform="scale(0.015625)" />
              <path
                 id="DejaVuSans-67"
                 d="m 2906,1791 q 0,625 -258,968 -257,344 -723,344 -462,0 -720,-344 -258,-343 -258,-968 0,-622 258,-966 258,-344 720,-344 466,0 723,344 258,344 258,966 z M 3481,434 q 0,-893 -397,-1329 -396,-436 -1215,-436 -303,0 -572,45 -269,45 -522,139 v 559 q 253,-137 500,-202 247,-66 503,-66 566,0 847,295 281,295 281,892 V 616 Q 2728,306 2450,153 2172,0 1784,0 1141,0 747,490 353,981 353,1791 q 0,812 394,1302 394,491 1037,491 388,0 666,-153 278,-153 456,-462 v 531 h 575 z"
                 transform="scale(0.015625)" />
              <path
                 id="DejaVuSans-75"
                 d="m 544,1381 v 2119 h 575 V 1403 q 0,-497 193,-746 194,-248 582,-248 465,0 735,297 271,297 271,810 v 1984 h 575 V 0 H 2900 V 538 Q 2691,219 2414,64 2138,-91 1772,-91 1169,-91 856,284 544,659 544,1381 Z m 1447,2203 z"
                 transform="scale(0.015625)" />
              <path
                 id="DejaVuSans-6e"
                 d="M 3513,2113 V 0 h -575 v 2094 q 0,497 -194,743 -194,247 -581,247 -466,0 -735,-297 -269,-296 -269,-809 V 0 H 581 v 3500 h 578 v -544 q 207,316 486,472 280,156 646,156 603,0 912,-373 310,-373 310,-1098 z"
                 transform="scale(0.015625)" />
              <path
                 id="DejaVuSans-44"
                 d="M 1259,4147 V 519 h 763 q 966,0 1414,437 448,438 448,1382 0,937 -448,1373 -448,436 -1414,436 z m -631,519 h 1297 q 1356,0 1990,-564 635,-564 635,-1764 Q 4550,1131 3912,565 3275,0 1925,0 H 628 Z"
                 transform="scale(0.015625)" />
            </defs>
            <use
               xlink:href="#DejaVuSans-59"
               id="use30502" />
            <use
               xlink:href="#DejaVuSans-69"
               x="57.458984"
               id="use30504" />
            <use
               xlink:href="#DejaVuSans-67"
               x="85.242188"
               id="use30506" />
            <use
               xlink:href="#DejaVuSans-75"
               x="148.71875"
               id="use30508" />
            <use
               xlink:href="#DejaVuSans-61"
               x="212.09766"
               id="use30510" />
            <use
               xlink:href="#DejaVuSans-6e"
               x="273.37695"
               id="use30512" />
            <use
               xlink:href="#DejaVuSans-20"
               x="336.75586"
               id="use30514" />
            <use
               xlink:href="#DejaVuSans-44"
               x="368.54297"
               id="use30516" />
            <use
               xlink:href="#DejaVuSans-61"
               x="445.54492"
               id="use30518" />
            <use
               xlink:href="#DejaVuSans-6f"
               x="506.82422"
               id="use30520" />
          </g>
        </g>
      </g>
      <g
         id="text_3">
        <g
           id="patch_18">
          <path
             d="M 44.164972,194.09187 H 113.11654 V 176.41375 H 44.164972 Z"
             clip-path="url(#p02ba4c0c7f)"
             style="opacity:0.7;fill:#ffffff;stroke:#000000;stroke-linejoin:miter"
             id="path30527" />
        </g>
        <g
           clip-path="url(#p02ba4c0c7f)"
           id="g30560">
          <!-- Valentinians -->
          <g
             transform="matrix(0.1,0,0,-0.1,48.164972,188.01219)"
             id="g30558">
            <defs
               id="defs30532">
              <path
                 id="DejaVuSans-56"
                 d="M 1831,0 50,4666 H 709 L 2188,738 3669,4666 h 656 L 2547,0 Z"
                 transform="scale(0.015625)" />
              <path
                 id="DejaVuSans-65"
                 d="M 3597,1894 V 1613 H 953 q 38,-594 358,-905 320,-311 892,-311 331,0 642,81 311,81 618,244 V 178 Q 3153,47 2828,-22 2503,-91 2169,-91 1331,-91 842,396 353,884 353,1716 q 0,859 464,1363 464,505 1252,505 706,0 1117,-455 411,-454 411,-1235 z m -575,169 q -6,471 -264,752 -258,282 -683,282 -481,0 -770,-272 -289,-272 -333,-766 z"
                 transform="scale(0.015625)" />
            </defs>
            <use
               xlink:href="#DejaVuSans-56"
               id="use30534" />
            <use
               xlink:href="#DejaVuSans-61"
               x="60.658203"
               id="use30536" />
            <use
               xlink:href="#DejaVuSans-6c"
               x="121.9375"
               id="use30538" />
            <use
               xlink:href="#DejaVuSans-65"
               x="149.7207"
               id="use30540" />
            <use
               xlink:href="#DejaVuSans-6e"
               x="211.24414"
               id="use30542" />
            <use
               xlink:href="#DejaVuSans-74"
               x="274.62305"
               id="use30544" />
            <use
               xlink:href="#DejaVuSans-69"
               x="313.83203"
               id="use30546" />
            <use
               xlink:href="#DejaVuSans-6e"
               x="341.61523"
               id="use30548" />
            <use
               xlink:href="#DejaVuSans-69"
               x="404.99414"
               id="use30550" />
            <use
               xlink:href="#DejaVuSans-61"
               x="432.77734"
               id="use30552" />
            <use
               xlink:href="#DejaVuSans-6e"
               x="494.05664"
               id="use30554" />
            <use
               xlink:href="#DejaVuSans-73"
               x="557.43555"
               id="use30556" />
          </g>
        </g>
      </g>
      <g
         id="text_4">
        <g
           id="patch_19">
          <path
             d="M 74.061725,137.79802 H 178.73672 V 120.1199 H 74.061725 Z"
             clip-path="url(#p02ba4c0c7f)"
             style="opacity:0.7;fill:#ffffff;stroke:#000000;stroke-linejoin:miter"
             id="path30563" />
        </g>
        <g
           clip-path="url(#p02ba4c0c7f)"
           id="g30604">
          <!-- Qumran Movement -->
          <g
             transform="matrix(0.1,0,0,-0.1,78.061725,131.71833)"
             id="g30602">
            <defs
               id="defs30570">
              <path
                 id="DejaVuSans-51"
                 d="m 2522,4238 q -688,0 -1093,-513 -404,-512 -404,-1397 0,-881 404,-1394 405,-512 1093,-512 687,0 1089,512 402,513 402,1394 0,885 -402,1397 -402,513 -1089,513 z M 3406,84 4238,-825 h -763 l -691,747 q -103,-6 -158,-9 -54,-4 -104,-4 -984,0 -1574,658 -589,658 -589,1761 0,1106 589,1764 590,658 1574,658 981,0 1568,-658 588,-658 588,-1764 0,-812 -327,-1391 Q 4025,359 3406,84 Z"
                 transform="scale(0.015625)" />
              <path
                 id="DejaVuSans-6d"
                 d="m 3328,2828 q 216,388 516,572 300,184 706,184 547,0 844,-383 297,-382 297,-1088 V 0 h -578 v 2094 q 0,503 -179,746 -178,244 -543,244 -447,0 -707,-297 -259,-296 -259,-809 V 0 h -578 v 2094 q 0,506 -178,748 -178,242 -550,242 -441,0 -701,-298 -259,-298 -259,-808 V 0 H 581 v 3500 h 578 v -544 q 197,322 472,475 275,153 653,153 382,0 649,-194 267,-193 395,-562 z"
                 transform="scale(0.015625)" />
              <path
                 id="DejaVuSans-4d"
                 d="m 628,4666 h 941 L 2759,1491 3956,4666 h 941 V 0 H 4281 V 4097 L 3078,897 H 2444 L 1241,4097 V 0 H 628 Z"
                 transform="scale(0.015625)" />
              <path
                 id="DejaVuSans-76"
                 d="M 191,3500 H 800 L 1894,563 2988,3500 h 609 L 2284,0 h -781 z"
                 transform="scale(0.015625)" />
            </defs>
            <use
               xlink:href="#DejaVuSans-51"
               id="use30572" />
            <use
               xlink:href="#DejaVuSans-75"
               x="78.710938"
               id="use30574" />
            <use
               xlink:href="#DejaVuSans-6d"
               x="142.08984"
               id="use30576" />
            <use
               xlink:href="#DejaVuSans-72"
               x="239.50195"
               id="use30578" />
            <use
               xlink:href="#DejaVuSans-61"
               x="280.61523"
               id="use30580" />
            <use
               xlink:href="#DejaVuSans-6e"
               x="341.89453"
               id="use30582" />
            <use
               xlink:href="#DejaVuSans-20"
               x="405.27344"
               id="use30584" />
            <use
               xlink:href="#DejaVuSans-4d"
               x="437.06055"
               id="use30586" />
            <use
               xlink:href="#DejaVuSans-6f"
               x="523.33984"
               id="use30588" />
            <use
               xlink:href="#DejaVuSans-76"
               x="584.52148"
               id="use30590" />
            <use
               xlink:href="#DejaVuSans-65"
               x="643.70117"
               id="use30592" />
            <use
               xlink:href="#DejaVuSans-6d"
               x="705.22461"
               id="use30594" />
            <use
               xlink:href="#DejaVuSans-65"
               x="802.63672"
               id="use30596" />
            <use
               xlink:href="#DejaVuSans-6e"
               x="864.16016"
               id="use30598" />
            <use
               xlink:href="#DejaVuSans-74"
               x="927.53906"
               id="use30600" />
          </g>
        </g>
      </g>
      <g
         id="text_5">
        <g
           id="patch_20">
          <path
             d="m 183.44207,41.030798 h 62.88125 V 23.352673 h -62.88125 z"
             clip-path="url(#p02ba4c0c7f)"
             style="opacity:0.7;fill:#ffffff;stroke:#000000;stroke-linejoin:miter"
             id="path30607" />
        </g>
        <g
           clip-path="url(#p02ba4c0c7f)"
           id="g30634">
          <!-- Cistercians -->
          <g
             transform="matrix(0.1,0,0,-0.1,187.44207,34.951111)"
             id="g30632">
            <use
               xlink:href="#DejaVuSans-43"
               id="use30610" />
            <use
               xlink:href="#DejaVuSans-69"
               x="69.824219"
               id="use30612" />
            <use
               xlink:href="#DejaVuSans-73"
               x="97.607422"
               id="use30614" />
            <use
               xlink:href="#DejaVuSans-74"
               x="149.70703"
               id="use30616" />
            <use
               xlink:href="#DejaVuSans-65"
               x="188.91602"
               id="use30618" />
            <use
               xlink:href="#DejaVuSans-72"
               x="250.43945"
               id="use30620" />
            <use
               xlink:href="#DejaVuSans-63"
               x="289.30273"
               id="use30622" />
            <use
               xlink:href="#DejaVuSans-69"
               x="344.2832"
               id="use30624" />
            <use
               xlink:href="#DejaVuSans-61"
               x="372.06641"
               id="use30626" />
            <use
               xlink:href="#DejaVuSans-6e"
               x="433.3457"
               id="use30628" />
            <use
               xlink:href="#DejaVuSans-73"
               x="496.72461"
               id="use30630" />
          </g>
        </g>
      </g>
      <g
         id="text_6">
        <g
           id="patch_21">
          <path
             d="M 22.340007,75.74146 H 132.05251 V 58.063335 H 22.340007 Z"
             clip-path="url(#p02ba4c0c7f)"
             style="opacity:0.7;fill:#ffffff;stroke:#000000;stroke-linejoin:miter"
             id="path30637" />
        </g>
        <g
           clip-path="url(#p02ba4c0c7f)"
           id="g30685">
          <!-- Jehovah's Witnesses -->
          <g
             transform="matrix(0.1,0,0,-0.1,26.340007,69.661772)"
             id="g30683">
            <defs
               id="defs30643">
              <path
                 id="DejaVuSans-4a"
                 d="m 628,4666 h 631 V 325 q 0,-844 -320,-1225 -320,-381 -1030,-381 h -240 v 531 h 197 q 418,0 590,235 172,234 172,840 z"
                 transform="scale(0.015625)" />
              <path
                 id="DejaVuSans-27"
                 d="M 1147,4666 V 2931 H 616 v 1735 z"
                 transform="scale(0.015625)" />
              <path
                 id="DejaVuSans-57"
                 d="m 213,4666 h 637 l 981,-3944 978,3944 h 710 l 981,-3944 978,3944 h 641 L 4947,0 H 4153 L 3169,4050 2175,0 h -794 z"
                 transform="scale(0.015625)" />
            </defs>
            <use
               xlink:href="#DejaVuSans-4a"
               id="use30645" />
            <use
               xlink:href="#DejaVuSans-65"
               x="29.492188"
               id="use30647" />
            <use
               xlink:href="#DejaVuSans-68"
               x="91.015625"
               id="use30649" />
            <use
               xlink:href="#DejaVuSans-6f"
               x="154.39453"
               id="use30651" />
            <use
               xlink:href="#DejaVuSans-76"
               x="215.57617"
               id="use30653" />
            <use
               xlink:href="#DejaVuSans-61"
               x="274.75586"
               id="use30655" />
            <use
               xlink:href="#DejaVuSans-68"
               x="336.03516"
               id="use30657" />
            <use
               xlink:href="#DejaVuSans-27"
               x="399.41406"
               id="use30659" />
            <use
               xlink:href="#DejaVuSans-73"
               x="426.9043"
               id="use30661" />
            <use
               xlink:href="#DejaVuSans-20"
               x="479.00391"
               id="use30663" />
            <use
               xlink:href="#DejaVuSans-57"
               x="510.79102"
               id="use30665" />
            <use
               xlink:href="#DejaVuSans-69"
               x="607.41797"
               id="use30667" />
            <use
               xlink:href="#DejaVuSans-74"
               x="635.20117"
               id="use30669" />
            <use
               xlink:href="#DejaVuSans-6e"
               x="674.41016"
               id="use30671" />
            <use
               xlink:href="#DejaVuSans-65"
               x="737.78906"
               id="use30673" />
            <use
               xlink:href="#DejaVuSans-73"
               x="799.3125"
               id="use30675" />
            <use
               xlink:href="#DejaVuSans-73"
               x="851.41211"
               id="use30677" />
            <use
               xlink:href="#DejaVuSans-65"
               x="903.51172"
               id="use30679" />
            <use
               xlink:href="#DejaVuSans-73"
               x="965.03516"
               id="use30681" />
          </g>
        </g>
      </g>
      <g
         id="text_7">
        <g
           id="patch_22">
          <path
             d="m 188.46315,133.64152 h 53.57656 V 115.9634 h -53.57656 z"
             clip-path="url(#p02ba4c0c7f)"
             style="opacity:0.7;fill:#ffffff;stroke:#000000;stroke-linejoin:miter"
             id="path30688" />
        </g>
        <g
           clip-path="url(#p02ba4c0c7f)"
           id="g30713">
          <!-- Opus Dei -->
          <g
             transform="matrix(0.1,0,0,-0.1,192.46315,127.56183)"
             id="g30711">
            <defs
               id="defs30693">
              <path
                 id="DejaVuSans-4f"
                 d="m 2522,4238 q -688,0 -1093,-513 -404,-512 -404,-1397 0,-881 404,-1394 405,-512 1093,-512 687,0 1089,512 402,513 402,1394 0,885 -402,1397 -402,513 -1089,513 z m 0,512 q 981,0 1568,-658 588,-658 588,-1764 0,-1103 -588,-1761 -587,-658 -1568,-658 -984,0 -1574,656 -589,657 -589,1763 0,1106 589,1764 590,658 1574,658 z"
                 transform="scale(0.015625)" />
              <path
                 id="DejaVuSans-70"
                 d="M 1159,525 V -1331 H 581 v 4831 h 578 v -531 q 182,312 458,463 277,152 661,152 638,0 1036,-506 399,-506 399,-1331 0,-825 -399,-1332 -398,-506 -1036,-506 -384,0 -661,152 -276,152 -458,464 z m 1957,1222 q 0,634 -261,995 -261,361 -717,361 -457,0 -718,-361 -261,-361 -261,-995 0,-634 261,-995 261,-361 718,-361 456,0 717,361 261,361 261,995 z"
                 transform="scale(0.015625)" />
            </defs>
            <use
               xlink:href="#DejaVuSans-4f"
               id="use30695" />
            <use
               xlink:href="#DejaVuSans-70"
               x="78.710938"
               id="use30697" />
            <use
               xlink:href="#DejaVuSans-75"
               x="142.1875"
               id="use30699" />
            <use
               xlink:href="#DejaVuSans-73"
               x="205.56641"
               id="use30701" />
            <use
               xlink:href="#DejaVuSans-20"
               x="257.66602"
               id="use30703" />
            <use
               xlink:href="#DejaVuSans-44"
               x="289.45312"
               id="use30705" />
            <use
               xlink:href="#DejaVuSans-65"
               x="366.45508"
               id="use30707" />
            <use
               xlink:href="#DejaVuSans-69"
               x="427.97852"
               id="use30709" />
          </g>
        </g>
      </g>
      <g
         id="text_8">
        <g
           id="patch_23">
          <path
             d="M 29.474137,224.42308 H 71.527262 V 206.74496 H 29.474137 Z"
             clip-path="url(#p02ba4c0c7f)"
             style="opacity:0.7;fill:#ffffff;stroke:#000000;stroke-linejoin:miter"
             id="path30716" />
        </g>
        <g
           clip-path="url(#p02ba4c0c7f)"
           id="g30737">
          <!-- Sokoto -->
          <g
             transform="matrix(0.1,0,0,-0.1,33.474137,218.3434)"
             id="g30735">
            <defs
               id="defs30721">
              <path
                 id="DejaVuSans-53"
                 d="m 3425,4513 v -616 q -359,172 -678,256 -319,85 -616,85 -515,0 -795,-200 -280,-200 -280,-569 0,-310 186,-468 186,-157 705,-254 l 381,-78 q 706,-135 1042,-474 336,-339 336,-907 0,-679 -455,-1029 -454,-350 -1332,-350 -331,0 -705,75 -373,75 -773,222 v 650 q 384,-215 753,-325 369,-109 725,-109 540,0 834,212 294,213 294,607 0,343 -211,537 -211,194 -692,291 l -385,75 q -706,140 -1022,440 -315,300 -315,835 0,619 436,975 436,356 1201,356 329,0 669,-60 341,-59 697,-177 z"
                 transform="scale(0.015625)" />
              <path
                 id="DejaVuSans-6b"
                 d="m 581,4863 h 578 V 1991 l 1716,1509 h 734 L 1753,1863 3688,0 H 2938 L 1159,1709 V 0 H 581 Z"
                 transform="scale(0.015625)" />
            </defs>
            <use
               xlink:href="#DejaVuSans-53"
               id="use30723" />
            <use
               xlink:href="#DejaVuSans-6f"
               x="63.476562"
               id="use30725" />
            <use
               xlink:href="#DejaVuSans-6b"
               x="124.6582"
               id="use30727" />
            <use
               xlink:href="#DejaVuSans-6f"
               x="178.94336"
               id="use30729" />
            <use
               xlink:href="#DejaVuSans-74"
               x="240.125"
               id="use30731" />
            <use
               xlink:href="#DejaVuSans-6f"
               x="279.33398"
               id="use30733" />
          </g>
        </g>
      </g>
    </g>
  </g>
  <defs
     id="defs30745">
    <clipPath
       id="p02ba4c0c7f">
      <rect
         x="7.2"
         y="7.2"
         width="288"
         height="288"
         id="rect30742" />
    </clipPath>
  </defs>
  <path
     style="fill:#000000;fill-opacity:1;stroke:#000000;stroke-width:1;stroke-dasharray:none;stroke-opacity:1"
     d="M 281.43453,284.41042 V 13.507044"
     id="path30931" />
  <path
     style="fill:#000000;fill-opacity:1;stroke:#000000;stroke-width:0.999998;stroke-dasharray:none;stroke-opacity:1"
     d="m 280.96894,14.036767 -6.70108,6.953914"
     id="path31296" />
  <path
     style="fill:#000000;fill-opacity:1;stroke:#000000;stroke-width:0.999997;stroke-dasharray:none;stroke-opacity:1"
     d="m 281.61895,13.701032 7.06087,8.342431"
     id="path31298" />
  <text
     xml:space="preserve"
     style="font-size:18px;fill:#000000;fill-opacity:1;stroke:#000000;stroke-width:0.999997;stroke-dasharray:none;stroke-opacity:1"
     x="284.14709"
     y="151.26697"
     id="text31302"><tspan
       sodipodi:role="line"
       id="tspan31300"
       style="stroke-width:1"
       x="284.14709"
       y="151.26697">p</tspan></text>
</svg>
